<svg xmlns="http://www.w3.org/2000/svg" width="156.3" height="179.2" viewBox="0 0 156.3 179.2"><defs><style>.cls-1{fill:#f7d7da;}.cls-2{fill:#f45867;}.cls-3{fill:#a33b45;}.cls-4{fill:#af1c24;}.cls-5{fill:#f2f2f2;}</style></defs><title>thumb-pdf</title><g id="Layer_2" data-name="Layer 2"><g id="Layer_1-2" data-name="Layer 1"><path class="cls-1" d="M132.05,13.45v152.3A13.45,13.45,0,0,1,118.6,179.2H20.4A13.45,13.45,0,0,1,7,165.75H7V43.55L50.55,0H118.6A13.42,13.42,0,0,1,132.05,13.45Z"/><path class="cls-2" d="M7,43.55,50.55,0V30.2a13.4,13.4,0,0,1-13.4,13.4Z"/><polygon class="cls-2" points="132.05 116.15 132.05 161.8 48.45 161.8 20.25 154.35 7 154.35 7 123.65 20.25 123.65 20.25 123.6 48.45 116.15 132.05 116.15"/><path class="cls-3" d="M48.45,110.75H145.5a10.82,10.82,0,0,1,10.8,10.8h0v24a10.82,10.82,0,0,1-10.8,10.8h-97V110.75Z"/><polygon class="cls-4" points="48.45 156.4 20.25 148.9 20.25 118.2 48.45 110.75 48.45 156.4"/><rect class="cls-3" y="118.25" width="20.3" height="30.7"/><polygon class="cls-4" points="0 118.25 7 114.1 7 118.25 0 118.25"/><polygon class="cls-4" points="0 148.9 7 153.1 7 148.9 0 148.9"/><path class="cls-5" d="M80.08,136.53v-6.11c1.4,0,2.1-.54,2.1-1.61s-.53-1.47-1.61-1.47-1.62.67-1.62,2V144.6H72V130.07a12.37,12.37,0,0,1,.46-3.7A7.39,7.39,0,0,1,74,123.68a8.8,8.8,0,0,1,3.08-2.19,9.54,9.54,0,0,1,3.81-.8,8.17,8.17,0,0,1,6,2.39A8,8,0,0,1,89.29,129a7.49,7.49,0,0,1-2.17,5.58c-1.32,1.31-3.32,2-6,2Z"/><path class="cls-5" d="M99.1,128V144.6H92.16V121.27h9q6,0,9.32,2.7a10.7,10.7,0,0,1,4,8.77,11.62,11.62,0,0,1-3.41,8.65,12.07,12.07,0,0,1-8.8,3.35c-.43,0-1.12,0-2.07-.07v-6.85h1.11c4,0,6.07-1.7,6.07-5.08q0-4.77-6-4.77Z"/><path class="cls-5" d="M126.55,132.26v6.26h-2.31v6.08H117.3V130.13a9.45,9.45,0,0,1,2.52-6.76,8.34,8.34,0,0,1,6.35-2.68,8.63,8.63,0,0,1,7.06,3.64l-5.69,4.15a1.74,1.74,0,0,0-1.69-1.33c-1.08,0-1.61.74-1.61,2.22v2.89Z"/></g></g></svg>