<svg xmlns="http://www.w3.org/2000/svg" width="156.3" height="179.2" viewBox="0 0 156.3 179.2"><defs><style>.cls-1{fill:#ebe9f4;}.cls-2{fill:#8966f7;}.cls-3{fill:#6535e9;}.cls-4{fill:#4e1ed4;}.cls-5{fill:#491cc4;}.cls-6{fill:#f2f2f2;}</style></defs><title>thumb-zip</title><g id="Layer_2" data-name="Layer 2"><g id="Layer_1-2" data-name="Layer 1"><path class="cls-1" d="M132.05,13.45v152.3A13.45,13.45,0,0,1,118.6,179.2H20.4A13.45,13.45,0,0,1,7,165.75H7V43.55L50.55,0H118.6A13.42,13.42,0,0,1,132.05,13.45Z"/><path class="cls-2" d="M7,43.55,50.55,0V30.2a13.4,13.4,0,0,1-13.4,13.4Z"/><polygon class="cls-2" points="132.05 116.15 132.05 161.8 48.45 161.8 20.25 154.35 7 154.35 7 123.65 20.25 123.65 20.25 123.6 48.45 116.15 132.05 116.15"/><path class="cls-3" d="M48.45,110.75H145.5a10.82,10.82,0,0,1,10.8,10.8h0v24a10.82,10.82,0,0,1-10.8,10.8h-97V110.75Z"/><polygon class="cls-4" points="48.45 156.4 20.25 148.9 20.25 118.2 48.45 110.75 48.45 156.4"/><rect class="cls-3" y="118.25" width="20.3" height="30.7"/><polygon class="cls-5" points="0 118.25 7 114.1 7 118.25 0 118.25"/><polygon class="cls-5" points="0 148.9 7 153.1 7 148.9 0 148.9"/><path class="cls-6" d="M95.25,121.27,88,137.9h7.16v6.7H77.56L84.77,128H77.15v-6.7Z"/><path class="cls-6" d="M104.53,121.27V144.6H97.59V121.27Z"/><path class="cls-6" d="M116.78,136.53v-6.11c1.4,0,2.1-.54,2.1-1.61s-.53-1.47-1.6-1.47-1.63.67-1.63,2V144.6h-6.94V130.07a12.71,12.71,0,0,1,.46-3.7,7.39,7.39,0,0,1,1.54-2.69,8.8,8.8,0,0,1,3.08-2.19,9.54,9.54,0,0,1,3.81-.8,8.17,8.17,0,0,1,6,2.39A8,8,0,0,1,126,129a7.49,7.49,0,0,1-2.17,5.58q-2,2-6,2Z"/></g></g></svg>