<svg xmlns="http://www.w3.org/2000/svg" width="156.3" height="179.2" viewBox="0 0 156.3 179.2"><defs><style>.cls-1{fill:#f9efe4;}.cls-2{fill:#e0b16e;}.cls-3{fill:#d6a550;}.cls-4{fill:#d39720;}.cls-5{fill:#f2f2f2;}</style></defs><title>thumb-ai</title><g id="Layer_2" data-name="Layer 2"><g id="Layer_1-2" data-name="Layer 1"><path class="cls-1" d="M132.05,13.45v152.3A13.45,13.45,0,0,1,118.6,179.2H20.4A13.45,13.45,0,0,1,7,165.75H7V43.55L50.55,0H118.6A13.42,13.42,0,0,1,132.05,13.45Z"/><path class="cls-2" d="M7,43.55,50.55,0V30.2a13.4,13.4,0,0,1-13.4,13.4Z"/><polygon class="cls-2" points="132.05 116.15 132.05 161.8 48.45 161.8 20.25 154.35 7 154.35 7 123.65 20.25 123.65 20.25 123.6 48.45 116.15 132.05 116.15"/><path class="cls-3" d="M48.45,110.75H145.5a10.82,10.82,0,0,1,10.8,10.8h0v24a10.82,10.82,0,0,1-10.8,10.8h-97V110.75Z"/><polygon class="cls-4" points="48.45 156.4 20.25 148.9 20.25 118.2 48.45 110.75 48.45 156.4"/><rect class="cls-3" y="118.25" width="20.3" height="30.7"/><polygon class="cls-4" points="0 118.25 7 114.1 7 118.25 0 118.25"/><polygon class="cls-4" points="0 148.9 7 153.1 7 148.9 0 148.9"/><path class="cls-5" d="M95.45,132.89v6.16h-2v5.55H86.51V129.77a9.12,9.12,0,0,1,2.35-6.69,8.87,8.87,0,0,1,6.61-2.39q4.09,0,6.06,2.16c1.32,1.44,2,3.67,2,6.68V144.6H96.56V130a4,4,0,0,0-.32-1.9,1.27,1.27,0,0,0-1.16-.53c-1.09,0-1.63.81-1.63,2.43v2.9Z"/><path class="cls-5" d="M114.64,121.27V144.6H107.7V121.27Z"/></g></g></svg>