<svg xmlns="http://www.w3.org/2000/svg" width="156.3" height="179.2" viewBox="0 0 156.3 179.2"><defs><style>.cls-1{fill:#e1e1f9;}.cls-2{fill:#5e5eea;}.cls-3{fill:#3232b2;}.cls-4{fill:#211ead;}.cls-5{fill:#f2f2f2;}</style></defs><title>thumb-eps</title><g id="Layer_2" data-name="Layer 2"><g id="Layer_1-2" data-name="Layer 1"><path class="cls-1" d="M132.05,13.45v152.3A13.45,13.45,0,0,1,118.6,179.2H20.4A13.45,13.45,0,0,1,7,165.75H7V43.55L50.55,0H118.6A13.42,13.42,0,0,1,132.05,13.45Z"/><path class="cls-2" d="M7,43.55,50.55,0V30.2a13.4,13.4,0,0,1-13.4,13.4Z"/><polygon class="cls-2" points="132.05 116.15 132.05 161.8 48.45 161.8 20.25 154.35 7 154.35 7 123.65 20.25 123.65 20.25 123.6 48.45 116.15 132.05 116.15"/><path class="cls-3" d="M48.45,110.75H145.5a10.82,10.82,0,0,1,10.8,10.8h0v24a10.82,10.82,0,0,1-10.8,10.8h-97V110.75Z"/><polygon class="cls-4" points="48.45 156.4 20.25 148.9 20.25 118.2 48.45 110.75 48.45 156.4"/><rect class="cls-3" y="118.25" width="20.3" height="30.7"/><polygon class="cls-4" points="0 118.25 7 114.1 7 118.25 0 118.25"/><polygon class="cls-4" points="0 148.9 7 153.1 7 148.9 0 148.9"/><path class="cls-5" d="M88.37,131v5.2H83.84a2.37,2.37,0,0,0-1.31.27,1.06,1.06,0,0,0-.38.93,1,1,0,0,0,.39,1,3.57,3.57,0,0,0,1.61.23h4.66v6.67H83.36a8.48,8.48,0,0,1-5.88-1.84,6.79,6.79,0,0,1-2-5.31v-9.14a6.86,6.86,0,0,1,1.92-5.19,7.46,7.46,0,0,1,5.41-1.85h6v6.7H84.39c-1.2,0-1.8.39-1.8,1.16a1,1,0,0,0,.43,1,3.05,3.05,0,0,0,1.52.26Z"/><path class="cls-5" d="M100.38,137.16V131c1.4,0,2.1-.53,2.1-1.6S102,128,100.88,128s-1.63.67-1.63,2v15.25H92.32V130.7a12.7,12.7,0,0,1,.45-3.7,7.54,7.54,0,0,1,1.54-2.69,8.8,8.8,0,0,1,3.08-2.19,9.54,9.54,0,0,1,3.81-.8,8.17,8.17,0,0,1,6,2.39,8,8,0,0,1,2.42,5.93,7.45,7.45,0,0,1-2.17,5.57q-2,2-6,2Z"/><path class="cls-5" d="M123.42,121.8v6.65a3.68,3.68,0,0,0-1.16-.26,1.79,1.79,0,0,0-1.35.58,1.92,1.92,0,0,0-.57,1.4A3.86,3.86,0,0,0,121,132l.53.92a9.75,9.75,0,0,1,1.43,4.82,7.73,7.73,0,0,1-2.41,5.76,8.18,8.18,0,0,1-5.91,2.36,7.74,7.74,0,0,1-3.31-.77v-6.75a3.37,3.37,0,0,0,1.76.63,2.24,2.24,0,0,0,1.51-.52,1.66,1.66,0,0,0,.6-1.31,6.69,6.69,0,0,0-1-2.24,10.93,10.93,0,0,1-1.56-5.47A7.85,7.85,0,0,1,115,123.7a7.61,7.61,0,0,1,5.62-2.38A8.53,8.53,0,0,1,123.42,121.8Z"/></g></g></svg>