<svg xmlns="http://www.w3.org/2000/svg" width="156.3" height="179.2" viewBox="0 0 156.3 179.2"><defs><style>.cls-1{fill:#dcf4f7;}.cls-2{fill:#82e4f4;}.cls-3{fill:#20add3;}.cls-4{fill:#0ca1ba;}.cls-5{fill:#f2f2f2;}</style></defs><title>thumb-psd</title><g id="Layer_2" data-name="Layer 2"><g id="Layer_1-2" data-name="Layer 1"><path class="cls-1" d="M132.05,13.45v152.3A13.45,13.45,0,0,1,118.6,179.2H20.4A13.45,13.45,0,0,1,7,165.75H7V43.55L50.55,0H118.6A13.42,13.42,0,0,1,132.05,13.45Z"/><path class="cls-2" d="M7,43.55,50.55,0V30.2a13.4,13.4,0,0,1-13.4,13.4Z"/><polygon class="cls-2" points="132.05 116.15 132.05 161.8 48.45 161.8 20.25 154.35 7 154.35 7 123.65 20.25 123.65 20.25 123.6 48.45 116.15 132.05 116.15"/><path class="cls-3" d="M48.45,110.75H145.5a10.82,10.82,0,0,1,10.8,10.8h0v24a10.82,10.82,0,0,1-10.8,10.8h-97V110.75Z"/><polygon class="cls-4" points="48.45 156.4 20.25 148.9 20.25 118.2 48.45 110.75 48.45 156.4"/><rect class="cls-3" y="118.25" width="20.3" height="30.7"/><polygon class="cls-4" points="0 118.25 7 114.1 7 118.25 0 118.25"/><polygon class="cls-4" points="0 148.9 7 153.1 7 148.9 0 148.9"/><path class="cls-5" d="M83.08,136.53v-6.11c1.4,0,2.1-.54,2.1-1.61s-.53-1.47-1.61-1.47-1.62.67-1.62,2V144.6H75V130.07a12.37,12.37,0,0,1,.46-3.7A7.39,7.39,0,0,1,77,123.68a8.8,8.8,0,0,1,3.08-2.19,9.54,9.54,0,0,1,3.81-.8,8.17,8.17,0,0,1,6,2.39A8,8,0,0,1,92.29,129a7.49,7.49,0,0,1-2.17,5.58c-1.32,1.31-3.32,2-6,2Z"/><path class="cls-5" d="M106.12,121.17v6.65a4,4,0,0,0-1.17-.26,1.86,1.86,0,0,0-1.35.58,2,2,0,0,0-.56,1.4,3.86,3.86,0,0,0,.62,1.78l.53.92a9.75,9.75,0,0,1,1.43,4.82,7.74,7.74,0,0,1-2.42,5.76,8.1,8.1,0,0,1-5.9,2.36,7.81,7.81,0,0,1-3.32-.77v-6.75a3.4,3.4,0,0,0,1.76.63,2.24,2.24,0,0,0,1.52-.52,1.64,1.64,0,0,0,.6-1.3,6.53,6.53,0,0,0-1-2.24,11,11,0,0,1-1.56-5.47,7.82,7.82,0,0,1,2.35-5.68,7.62,7.62,0,0,1,5.62-2.39A8.61,8.61,0,0,1,106.12,121.17Z"/><path class="cls-5" d="M116.58,128V144.6h-6.94V121.27h9q5.94,0,9.31,2.7a10.68,10.68,0,0,1,4,8.77,11.59,11.59,0,0,1-3.42,8.65,12.05,12.05,0,0,1-8.8,3.35c-.42,0-1.11,0-2.07-.07v-6.85h1.11c4,0,6.07-1.7,6.07-5.08q0-4.77-6-4.77Z"/></g></g></svg>