<svg xmlns="http://www.w3.org/2000/svg" width="156.3" height="179.2" viewBox="0 0 156.3 179.2"><defs><style>.cls-1{fill:#dff7ef;}.cls-2{fill:#89f4d1;}.cls-3{fill:#22d19b;}.cls-4{fill:#0cba80;}.cls-5{fill:#f2f2f2;}</style></defs><title>thumb-docx</title><g id="Layer_2" data-name="Layer 2"><g id="Layer_1-2" data-name="Layer 1"><path class="cls-1" d="M132.05,13.45v152.3A13.45,13.45,0,0,1,118.6,179.2H20.4A13.45,13.45,0,0,1,7,165.75H7V43.55L50.55,0H118.6A13.42,13.42,0,0,1,132.05,13.45Z"/><path class="cls-2" d="M7,43.55,50.55,0V30.2a13.4,13.4,0,0,1-13.4,13.4Z"/><polygon class="cls-2" points="132.05 116.15 132.05 161.8 48.45 161.8 20.25 154.35 7 154.35 7 123.65 20.25 123.65 20.25 123.6 48.45 116.15 132.05 116.15"/><path class="cls-3" d="M48.45,110.75H145.5a10.82,10.82,0,0,1,10.8,10.8h0v24a10.82,10.82,0,0,1-10.8,10.8h-97V110.75Z"/><polygon class="cls-4" points="48.45 156.4 20.25 148.9 20.25 118.2 48.45 110.75 48.45 156.4"/><rect class="cls-3" y="118.25" width="20.3" height="30.7"/><polygon class="cls-4" points="0 118.25 7 114.1 7 118.25 0 118.25"/><polygon class="cls-4" points="0 148.9 7 153.1 7 148.9 0 148.9"/><path class="cls-5" d="M62.43,128V144.6H55.49V121.27h9q6,0,9.32,2.7a10.71,10.71,0,0,1,4,8.77,11.59,11.59,0,0,1-3.42,8.65,12.07,12.07,0,0,1-8.8,3.35c-.43,0-1.12,0-2.07-.07v-6.85h1.11c4,0,6.07-1.7,6.07-5.08q0-4.77-6-4.77Z"/><path class="cls-5" d="M92.17,120.69a11.49,11.49,0,0,1,8.5,3.61,12.25,12.25,0,1,1-21,8.63,11.7,11.7,0,0,1,3.61-8.68A12.14,12.14,0,0,1,92.17,120.69ZM92,127.56a4.88,4.88,0,0,0-3.64,1.57,5.32,5.32,0,0,0-1.5,3.8,5.26,5.26,0,0,0,1.51,3.79,5,5,0,0,0,7.28,0,5.56,5.56,0,0,0,0-7.6A4.84,4.84,0,0,0,92,127.56Z"/><path class="cls-5" d="M123.25,133.2l7.27.19a14.13,14.13,0,0,1-3.91,8.71,11.43,11.43,0,0,1-8.31,3.08,11.87,11.87,0,0,1-8.73-3.49,12.5,12.5,0,0,1,.07-17.44,12.05,12.05,0,0,1,8.83-3.56,11.6,11.6,0,0,1,8.61,3.49,13.54,13.54,0,0,1,3.38,6.71l-7.43.5q-1.25-3.82-4.73-3.83a4.8,4.8,0,0,0-3.67,1.54,5.5,5.5,0,0,0-1.44,3.91,5.27,5.27,0,0,0,1.42,3.79,5.21,5.21,0,0,0,7.1.18A6,6,0,0,0,123.25,133.2Z"/><path class="cls-5" d="M149.86,121.27l-6.07,11.35,6.28,12h-7.3l-2.87-5.66-2.43,5.66h-7.18l6.41-11.79-6.06-11.54h7.22l2.72,5.3,2.19-5.3Z"/></g></g></svg>