<svg xmlns="http://www.w3.org/2000/svg" width="156.3" height="179.2" viewBox="0 0 156.3 179.2"><defs><style>.cls-1{fill:#f4efd3;}.cls-2{fill:#e7f277;}.cls-3{fill:#c1ba3d;}.cls-4{fill:#b2a71b;}.cls-5{fill:#f2f2f2;}</style></defs><title>thumb-rar</title><g id="Layer_2" data-name="Layer 2"><g id="Layer_1-2" data-name="Layer 1"><path class="cls-1" d="M132.05,13.45v152.3A13.45,13.45,0,0,1,118.6,179.2H20.4A13.45,13.45,0,0,1,7,165.75H7V43.55L50.55,0H118.6A13.42,13.42,0,0,1,132.05,13.45Z"/><path class="cls-2" d="M7,43.55,50.55,0V30.2a13.4,13.4,0,0,1-13.4,13.4Z"/><polygon class="cls-2" points="132.05 116.15 132.05 161.8 48.45 161.8 20.25 154.35 7 154.35 7 123.65 20.25 123.65 20.25 123.6 48.45 116.15 132.05 116.15"/><path class="cls-3" d="M48.45,110.75H145.5a10.82,10.82,0,0,1,10.8,10.8h0v24a10.82,10.82,0,0,1-10.8,10.8h-97V110.75Z"/><polygon class="cls-4" points="48.45 156.4 20.25 148.9 20.25 118.2 48.45 110.75 48.45 156.4"/><rect class="cls-3" y="118.25" width="20.3" height="30.7"/><polygon class="cls-4" points="0 118.25 7 114.1 7 118.25 0 118.25"/><polygon class="cls-4" points="0 148.9 7 153.1 7 148.9 0 148.9"/><path class="cls-5" d="M80.43,127.54V144.6H73.49V121.27H82.4a9.05,9.05,0,0,1,6.3,2A7.53,7.53,0,0,1,88.1,135l4,9.62H84.82l-3.36-7.52v-6H82c1.46,0,2.19-.62,2.19-1.88,0-1.1-.84-1.66-2.53-1.66Z"/><path class="cls-5" d="M102.89,132.89v6.16h-2v5.55H94V129.77a9.08,9.08,0,0,1,2.35-6.69,8.84,8.84,0,0,1,6.6-2.39q4.11,0,6.07,2.16t2,6.68V144.6H104V130a3.87,3.87,0,0,0-.33-1.9,1.25,1.25,0,0,0-1.16-.53q-1.62,0-1.62,2.43v2.9Z"/><path class="cls-5" d="M122.08,127.54V144.6h-6.94V121.27H124a9.08,9.08,0,0,1,6.31,2,7.54,7.54,0,0,1-.6,11.69l4,9.62h-7.28l-3.37-7.52v-6h.55c1.46,0,2.19-.62,2.19-1.88,0-1.1-.85-1.66-2.53-1.66Z"/></g></g></svg>